<?xml version="1.0" encoding="UTF-8"?>
<svg width="185px" height="358px" viewBox="0 0 185 358" version="1.1" xmlns="http://www.w3.org/2000/svg" xmlns:xlink="http://www.w3.org/1999/xlink">
    <!-- Generator: Sketch 49.1 (51147) - http://www.bohemiancoding.com/sketch -->
    <title>2</title>
    <desc>Created with Sketch.</desc>
    <defs>
        <linearGradient x1="14.5947086%" y1="6.9478194%" x2="92.7774229%" y2="96.7433601%" id="linearGradient-1">
            <stop stop-color="#53627D" offset="0%"></stop>
            <stop stop-color="#2F2F2F" offset="100%"></stop>
        </linearGradient>
        <linearGradient x1="100%" y1="0%" x2="0%" y2="100%" id="linearGradient-2">
            <stop stop-color="#FEC180" offset="0%"></stop>
            <stop stop-color="#FF8993" offset="100%"></stop>
        </linearGradient>
    </defs>
    <g id="Characters-done" stroke="none" stroke-width="1" fill="none" fill-rule="evenodd">
        <g id="1" transform="translate(-406.000000, -187.000000)">
            <g id="2" transform="translate(387.000000, 161.000000)">
                <path d="M25.8228007,306.143135 L102.645196,210.523771 C106.796072,205.357255 114.34931,204.533916 119.515826,208.684792 C120.19363,209.229353 120.810243,209.845966 121.354804,210.523771 L198.335765,306.340499 C202.486641,311.507015 201.663303,319.060253 196.496787,323.211129 C196.435816,323.260114 196.374369,323.308501 196.312452,323.356285 L121.17757,381.340813 C116.930481,384.618458 111.023845,384.67891 106.710561,381.488877 L28.0420868,323.306985 C22.71363,319.366147 21.5887425,311.851899 25.5295804,306.523442 C25.6247739,306.39473 25.7225336,306.267935 25.8228007,306.143135 Z" id="Path" fill="url(#linearGradient-1)" transform="translate(112.079112, 294.940012) scale(1, -1) translate(-112.079112, -294.940012) "></path>
                <path d="M25.8228007,306.143135 L102.645196,210.523771 C106.796072,205.357255 114.34931,204.533916 119.515826,208.684792 C120.19363,209.229353 120.810243,209.845966 121.354804,210.523771 L198.335765,306.340499 C202.486641,311.507015 201.663303,319.060253 196.496787,323.211129 C196.435816,323.260114 196.374369,323.308501 196.312452,323.356285 L121.17757,381.340813 C116.930481,384.618458 111.023845,384.67891 106.710561,381.488877 L28.0420868,323.306985 C22.71363,319.366147 21.5887425,311.851899 25.5295804,306.523442 C25.6247739,306.39473 25.7225336,306.267935 25.8228007,306.143135 Z" id="Path" fill="url(#linearGradient-1)" transform="translate(112.079112, 294.940012) scale(1, -1) rotate(18.000000) translate(-112.079112, -294.940012) "></path>
                <path d="M25.8228007,306.143135 L102.645196,210.523771 C106.796072,205.357255 114.34931,204.533916 119.515826,208.684792 C120.19363,209.229353 120.810243,209.845966 121.354804,210.523771 L198.335765,306.340499 C202.486641,311.507015 201.663303,319.060253 196.496787,323.211129 C196.435816,323.260114 196.374369,323.308501 196.312452,323.356285 L121.17757,381.340813 C116.930481,384.618458 111.023845,384.67891 106.710561,381.488877 L28.0420868,323.306985 C22.71363,319.366147 21.5887425,311.851899 25.5295804,306.523442 C25.6247739,306.39473 25.7225336,306.267935 25.8228007,306.143135 Z" id="Path" fill="url(#linearGradient-1)" transform="translate(112.079112, 294.940012) scale(1, -1) rotate(-18.000000) translate(-112.079112, -294.940012) "></path>
                <path d="M19.8137358,274.705341 L101.393729,34.2143199 C103.522739,27.9381766 110.336461,24.5762607 116.612605,26.7052704 C120.198085,27.9215465 122.999267,30.7586158 124.169804,34.3592883 L202.385347,274.9571 C203.95331,279.780292 202.319769,285.068439 198.304726,288.167005 L120.17757,348.460788 C115.930481,351.738433 110.023845,351.798885 105.710561,348.608853 L24.0421801,288.208279 C19.8467535,285.105411 18.1374336,279.646941 19.8137358,274.705341 Z" id="Path" fill="url(#linearGradient-2)"></path>
                <ellipse id="Oval" fill="#FAFAFA" cx="84.5" cy="192" rx="21.5" ry="31"></ellipse>
                <ellipse id="Oval" fill="#53627D" cx="84" cy="203" rx="16" ry="20"></ellipse>
                <ellipse id="Oval-Copy" fill="#FAFAFA" cx="134.5" cy="192" rx="21.5" ry="31"></ellipse>
                <ellipse id="Oval-Copy-2" fill="#53627D" cx="135" cy="203" rx="16" ry="20"></ellipse>
                <circle id="Oval-Copy-2" fill="#FFFFFF" cx="141.5" cy="189.5" r="4.5"></circle>
                <circle id="Oval-Copy-3" fill="#FFFFFF" cx="90.5" cy="189.5" r="4.5"></circle>
                <path d="M90,274 C104,289 112.525849,288.912464 117.167745,288.103798 C119.769776,287.650498 124.078033,283.853211 135.294228,274 L90,274 Z" id="v" stroke="#FFFFFF" stroke-width="2" fill="#FAFAFA"></path>
            </g>
        </g>
    </g>
</svg>